# xmcd
#
# Track frame offsets:
#	150
#	19120
#	38167
#	56333
#	71494
#	89584
#	103267
#	129305
#	145616
#	163030
#	178577
#	196822
#	212056
#	232095
#	246937
#	264165
#
# Disc length: 3674 seconds
#
# Revision: 1
# Processed by: cddbd v1.5.2PL0 Copyright (c) Steve Scherf et al.
# Submitted via: audiograbber 1.83.01
#
DISCID=dd0e5810
DTITLE=Various Artist - Moderne ballader and vakre viser CD1
DYEAR=2002
DGENRE=Blues
TTITLE0=Anne Grete Preus - Månens Elev
TTITLE1=Finn Kalvik - Trøstevise
TTITLE2=Eva Dahlgren - Vem tender stjärnorna
TTITLE3=Halfdan Sivertsen - Kjærlighetsvise
TTITLE4=Ole Paus - Innerst i sjelen
TTITLE5=Rikard Wolff - Det vackraste møtet
TTITLE6=Jonas Fjeld - Engler i sneen
TTITLE7=Jørn Hoel - Vi skal elske i sneen
TTITLE8=Ketil Bjørnstad - Libidella
TTITLE9=Ulf Lundell - Kârleken förde oss sammen
TTITLE10=Ted Gärdestad - För kärlekens skull
TTITLE11=Lars Bremnes - Å kunne æ skrive
TTITLE12=Mikael Wiehe - Hon kom över ängarna
TTITLE13=Tres små kinesere - Klassebildet
TTITLE14=Stein Ove Berg - Manda morra blues
TTITLE15=Fred Åkerström - Oslo
EXTD=
EXTT0=
EXTT1=
EXTT2=
EXTT3=
EXTT4=
EXTT5=
EXTT6=
EXTT7=
EXTT8=
EXTT9=
EXTT10=
EXTT11=
EXTT12=
EXTT13=
EXTT14=
EXTT15=
PLAYORDER=
